<?xml version="1.0" encoding="UTF-8" standalone="no"?>
<svg
   xmlns:dc="http://purl.org/dc/elements/1.1/"
   xmlns:cc="http://creativecommons.org/ns#"
   xmlns:rdf="http://www.w3.org/1999/02/22-rdf-syntax-ns#"
   xmlns:svg="http://www.w3.org/2000/svg"
   xmlns="http://www.w3.org/2000/svg"
   xmlns:xlink="http://www.w3.org/1999/xlink"
   xmlns:sodipodi="http://sodipodi.sourceforge.net/DTD/sodipodi-0.dtd"
   xmlns:inkscape="http://www.inkscape.org/namespaces/inkscape"
   xml:space="preserve"
   width="26"
   height="26"
   style="isolation:isolate"
   viewBox="66.993 897.484 26 26"
   version="1.1"
   id="svg3742"
   sodipodi:docname="logo.svg"
   inkscape:version="0.92.5 (2060ec1f9f, 2020-04-08)"><metadata
     id="metadata3746"><rdf:RDF><cc:Work
         rdf:about=""><dc:format>image/svg+xml</dc:format><dc:type
           rdf:resource="http://purl.org/dc/dcmitype/StillImage" /></cc:Work></rdf:RDF></metadata><sodipodi:namedview
     pagecolor="#ffffff"
     bordercolor="#666666"
     borderopacity="1"
     objecttolerance="10"
     gridtolerance="10"
     guidetolerance="10"
     inkscape:pageopacity="0"
     inkscape:pageshadow="2"
     inkscape:window-width="3840"
     inkscape:window-height="2111"
     id="namedview3744"
     showgrid="false"
     inkscape:snap-grids="true"
     inkscape:zoom="74.232099"
     inkscape:cx="12.999686"
     inkscape:cy="13.00032"
     inkscape:window-x="0"
     inkscape:window-y="0"
     inkscape:window-maximized="1"
     inkscape:current-layer="svg3742" /><defs
     id="defs3733"><linearGradient
       xlink:href="#a"
       id="b"
       x1=".148"
       x2=".845"
       y1=".851"
       y2=".154"
       gradientTransform="matrix(26.00048 0 0 25.99935 66.993 897.485)"
       gradientUnits="userSpaceOnUse" /></defs><linearGradient
     id="a"
     x1=".148"
     x2=".845"
     y1=".851"
     y2=".154"
     gradientTransform="matrix(26.301 0 0 26.331 90.674 911.757)"
     gradientUnits="userSpaceOnUse"><stop
       offset="0"
       stop-color="#004ba6"
       style="stop-color:#0071ff;stop-opacity:1"
       id="stop3735" /><stop
       offset="1"
       stop-color="#00bfe1"
       style="stop-color:#00bfe1;stop-opacity:1"
       id="stop3737" /></linearGradient><g
     id="g3987"><path
       id="path3740"
       style="fill:url(#b);stroke-width:.987988"
       d="m89.318 903.552-2.135 2.122c-.376.337-.558.879-.347 1.337 1.422 2.976.882 6.524-1.452 8.856-2.335 2.331-5.887 2.87-8.866 1.449-.439-.197-.954-.03-1.292.312l-2.17 2.167a1.154 1.154 0 0 0 .208 1.81 13.005 13.005 0 0 0 15.91-1.912 12.97 12.97 0 0 0 1.956-15.887 1.154 1.154 0 0 0-1.812-.254zm-18.467-2.305a12.969 12.969 0 0 0-2.02 15.885 1.154 1.154 0 0 0 1.812.254l2.124-2.11c.385-.336.572-.884.359-1.348-1.423-2.976-.884-6.524 1.451-8.856 2.334-2.332 5.887-2.871 8.866-1.45.434.194.942.033 1.281-.3l2.182-2.18a1.152 1.152 0 0 0-.208-1.81 13.009 13.009 0 0 0-15.893 1.973z"
       fill="url(#a)" /><g
       id="g3925"
       transform="matrix(0.01714286,0,0,0.01714286,74.018545,908.52272)"><polygon
         style="fill:#00c1d4"
         class="cls-1"
         points="102.99,194.81 102.99,41.92 158.47,41.92 158.47,0 0,0 0,41.92 55.48,41.92 55.48,194.81 "
         id="polygon3884" /><polygon
         style="fill:#00c1d4"
         class="cls-1"
         points="470.4,0 470.4,76.58 406.96,76.58 406.96,0 359.44,0 359.44,194.81 406.96,194.81 406.96,118.5 470.4,118.5 470.4,194.81 517.91,194.81 517.91,0 "
         id="polygon3886" /><polygon
         style="fill:#00c1d4"
         class="cls-1"
         points="652.49,0 652.49,76.58 589.05,76.58 589.05,0 541.53,0 541.53,194.81 589.05,194.81 589.05,118.5 652.49,118.5 652.49,194.81 700,194.81 700,0 "
         id="polygon3888" /><path
         style="fill:#00c1d4"
         inkscape:connector-curvature="0"
         class="cls-1"
         d="m 406.66,598.66 c -43.69,0 -79.24,-35.27 -79.24,-78.63 v -119 h 47.23 V 520 a 32,32 0 0 0 64,0 V 401 h 47.22 v 119 c 0,43.36 -35.54,78.63 -79.23,78.63"
         transform="translate(-150.07,-401.06)"
         id="path3890" /></g></g></svg>